# xmcd
#
# Track frame offsets: 
#        150
#        29372
#        56004
#        75251
#        98010
#        119012
#        142272
#        165978
#        194699
#        220634
#        237569
#
# Disc length: 3430 seconds
#
# Revision: 2
# Processed by: cddbd v1.5.2PL0 Copyright (c) Steve Scherf et al.
# Submitted via: ExactAudioCopy v1.1
#
DISCID=980d640b
DTITLE=Silvia Droste - Audiophile voicings
DYEAR=1900
DGENRE=Jazz
TTITLE0=My one and only love
TTITLE1=Do you know what it means to miss
TTITLE2=The very thought of you
TTITLE3=Good bye pork pie hat
TTITLE4=Easy living
TTITLE5=Summer knows
TTITLE6=Desmondstration
TTITLE7=Willow weep for me
TTITLE8=Skylark
TTITLE9=Don't be that way
TTITLE10=Not like this
EXTD=
EXTT0=
EXTT1=
EXTT2=
EXTT3=
EXTT4=
EXTT5=
EXTT6=
EXTT7=
EXTT8=
EXTT9=
EXTT10=
PLAYORDER=
